<?xml version="1.0" standalone="no"?>
<!DOCTYPE svg PUBLIC "-//W3C//DTD SVG 20010904//EN"
 "http://www.w3.org/TR/2001/REC-SVG-20010904/DTD/svg10.dtd">
<svg version="1.0" xmlns="http://www.w3.org/2000/svg"
 width="700.000000pt" height="700.000000pt" viewBox="0 0 700.000000 700.000000"
 preserveAspectRatio="xMidYMid meet">
<metadata>
Created by potrace 1.11, written by Peter Selinger 2001-2013
</metadata>
<g transform="translate(0.000000,700.000000) scale(0.100000,-0.100000)"
fill="#000000" stroke="none">
<path d="M4073 6944 c-146 -44 -345 -248 -387 -394 -57 -200 -51 -513 11 -634
17 -32 102 -158 166 -244 21 -30 36 -56 33 -59 -3 -3 -34 -7 -68 -7 -49 -1
-76 -8 -121 -31 -32 -16 -66 -37 -75 -45 -9 -9 -33 -27 -52 -40 -28 -19 -151
-126 -226 -195 -140 -129 -198 -181 -214 -192 -25 -18 -24 -14 48 137 70 150
72 155 87 225 28 125 -1 262 -91 436 -81 156 -189 244 -329 266 -52 9 -158 9
-215 0 -139 -21 -303 -155 -377 -307 -22 -47 -44 -101 -49 -120 -4 -19 -10
-42 -12 -50 -9 -31 -11 -230 -3 -257 5 -15 14 -48 22 -73 16 -58 40 -106 95
-191 47 -74 51 -85 32 -86 -29 -1 -108 -15 -187 -34 -195 -45 -426 -193 -546
-349 -91 -118 -183 -328 -255 -577 -21 -76 -42 -154 -45 -173 -3 -19 -10 -53
-15 -75 -23 -105 -32 -265 -19 -345 4 -25 10 -67 13 -93 8 -59 50 -193 82
-264 23 -50 88 -166 106 -188 4 -5 29 -36 54 -68 25 -32 58 -70 72 -85 13 -15
44 -53 67 -84 45 -61 77 -158 90 -273 4 -33 8 -69 10 -80 1 -11 5 -49 9 -85 4
-36 11 -85 16 -110 5 -25 14 -74 21 -110 6 -36 20 -96 30 -135 10 -38 20 -81
23 -95 34 -176 191 -585 372 -969 24 -51 44 -95 44 -98 0 -13 264 -538 305
-608 69 -116 71 -117 104 -78 31 37 47 66 141 253 84 167 119 249 158 365 39
116 42 135 49 287 16 362 -47 482 -752 1421 -543 724 -580 780 -656 1015 -35
108 -45 226 -28 302 6 25 12 52 14 61 23 112 186 472 230 509 23 19 39 0 86
-111 64 -147 70 -199 74 -569 2 -195 7 -344 14 -373 15 -66 41 -113 101 -188
183 -227 494 -485 745 -616 55 -29 227 -103 239 -103 2 0 -18 44 -45 98 -73
144 -94 252 -75 385 45 316 387 494 633 330 97 -64 166 -166 199 -292 23 -91
24 -164 2 -267 -10 -49 -17 -108 -16 -131 l3 -43 65 33 c160 81 553 372 764
567 263 241 289 280 321 470 18 109 21 140 40 375 18 236 23 289 41 425 18
141 33 202 48 197 51 -17 166 -407 200 -679 36 -282 -11 -432 -211 -681 -36
-45 -69 -84 -72 -87 -3 -3 -26 -27 -50 -55 -35 -40 -208 -223 -386 -409 -15
-17 -156 -170 -230 -252 -5 -6 -29 -33 -52 -60 -23 -27 -50 -59 -60 -71 -181
-214 -309 -410 -357 -549 -35 -99 -38 -122 -41 -299 -6 -295 57 -578 185 -835
91 -184 192 -334 288 -428 60 -59 65 -62 85 -49 84 55 347 579 526 1047 144
374 239 758 286 1150 13 106 16 149 20 290 6 188 10 221 41 283 19 38 152 209
184 237 3 3 26 32 51 65 142 188 196 327 216 560 13 141 6 468 -12 565 -2 14
-7 45 -10 70 -22 175 -102 468 -166 607 -10 24 -19 46 -19 49 0 13 -99 204
-141 270 -124 199 -273 343 -422 409 -71 31 -157 28 -257 -9 -119 -43 -114
-43 -100 -15 7 13 36 53 64 89 110 138 172 271 195 420 45 280 -67 571 -274
711 -152 104 -349 140 -502 93z"/>
</g>
</svg>
