<?xml version="1.0" encoding="utf-8"?>
<!-- Generator: Adobe Illustrator 16.0.0, SVG Export Plug-In . SVG Version: 6.00 Build 0)  -->
<!DOCTYPE svg PUBLIC "-//W3C//DTD SVG 1.1//EN" "http://www.w3.org/Graphics/SVG/1.1/DTD/svg11.dtd">
<svg version="1.1" id="Layer_1" xmlns="http://www.w3.org/2000/svg" xmlns:xlink="http://www.w3.org/1999/xlink" x="0px" y="0px"
	 width="1050px" height="735px" viewBox="0 0 1050 735" enable-background="new 0 0 1050 735" xml:space="preserve">
<g transform="translate(0.000000,168.000000) scale(0.100000,-0.100000)">
	<path fill="#FFFFFF" d="M2608.53,1622.954c-93.76-36.689-244.624-183.477-309.858-305.781
		c-32.607-61.138-57.075-220.161-57.075-350.61c0-203.853,20.396-269.097,122.31-407.695l122.314-171.26h-101.924
		c-65.239,0-187.559-81.538-366.938-248.706C1870.591,0.293,1752.339-101.626,1752.339-93.462c0,8.135,36.709,85.596,81.553,175.312
		c101.929,195.674,101.929,317.983,4.082,534.092c-97.837,216.06-224.229,301.689-436.25,301.689
		c-403.623,0-652.319-513.706-428.086-884.717l81.538-126.377l-158.999-28.564C696.416-154.629,451.782-313.642,329.478-488.95
		C186.777-700.962,40-1182.026,40-1438.877c0-277.251,110.088-538.188,301.689-742.06
		c122.324-126.348,138.623-175.293,167.168-448.457c12.227-167.129,81.548-468.848,146.772-672.715
		c126.401-383.242,627.871-1447.344,684.946-1447.344c16.294,0,101.924,150.859,191.616,334.355
		c126.396,277.188,159.009,383.184,159.009,582.969c0,301.758-69.326,432.168-648.242,1198.672
		c-554.487,733.862-578.945,770.542-656.411,990.713c-52.988,154.932-57.07,220.156-20.386,366.934
		c53.003,183.472,191.621,481.099,228.311,481.099c12.231,0,48.911-65.239,81.553-146.787
		c44.854-101.938,61.147-256.841,52.993-505.552c-8.14-305.781,0-370.991,73.394-472.925
		c175.303-240.551,546.318-542.27,799.082-648.266l154.946-65.215l-65.239,122.324c-167.158,326.152,20.386,697.143,350.635,697.143
		c260.918,0,448.462-309.839,366.919-599.331c-20.376-73.379-24.458-134.512-8.154-134.512
		c73.398,0,538.184,334.297,786.875,566.704c297.617,277.227,273.154,199.756,338.398,1035.537
		c16.299,171.26,40.757,313.945,57.061,313.945c48.94,0,163.081-387.329,191.641-631.948
		c40.762-346.538-24.473-477.007-513.711-982.558c-509.644-525.938-746.094-831.719-815.42-1051.895
		c-65.234-207.91-32.607-591.152,81.543-892.832c89.707-236.465,305.786-558.574,395.479-587.109
		c69.312-24.453,468.867,815.391,599.321,1251.66c122.31,407.676,187.544,790.938,187.544,1096.738
		c0,191.582,16.309,236.465,142.69,375.058c269.087,297.651,326.177,460.733,322.085,892.871
		c-4.082,640.103-273.145,1304.648-627.851,1541.123c-138.623,93.765-216.074,97.847-387.324,24.463
		c-69.316-28.535-65.234-12.236,28.545,97.847c216.084,260.937,244.634,607.495,69.307,888.804
		C3134.477,1594.429,2828.677,1704.477,2608.53,1622.954z"/>
	<path fill="#FFFFFF" d="M8749.491-1605.044c-284.395,0-546.836-95.698-756.953-256.504l-0.859,1548.696h-487.851v-1528.267
		c-210.762,158.594-472.637,252.778-756.094,252.778c-415.508,0-784.648-202.222-1014.316-513.359
		c-228.301,303.521-591.367,500.171-999.536,500.171c-689.277,0-1250.044-560.737-1250.044-1250.053c0-0.02,0-0.02,0-0.02v-2300.078
		h500.01v2261.738l0.991,0.078c-0.654,12.656-0.991,25.43-0.991,38.281c0,413.574,336.436,750.058,750.034,750.058
		s750.044-336.484,750.044-750.058c0-413.184-336.211-749.668-749.448-750.078l0.469-500.02
		c409.019,0.41,772.729,198.359,1000.698,503.32c229.844-309.395,597.949-510.254,1012.09-510.254l0,0l0.859-0.039l454.102-0.312
		l0.215,502.891l-455.176,1.504c-416.875,0-756.074,339.18-756.074,756.094c0,416.895,339.199,756.054,756.074,756.054
		c402.266,0,732.207-315.878,754.824-712.617c-0.586-15.918-0.996-31.895-0.996-47.949
		c0-688.145,559.804-1247.969,1247.929-1247.969h0.859l-0.859,499.18c-412.871,0-748.73,335.879-748.73,748.789
		c0,412.871,335.859,748.769,748.73,748.769c412.93,0,748.789-335.898,748.789-748.769c0-12.5-0.312-24.863-0.918-37.188
		l0.918-0.059V-4063.32l-0.918-0.059c0.605-12.422,0.918-24.961,0.918-37.578c0-412.891-335.859-748.75-748.965-748.75
		l0.176-499.199c688.164,0,1247.969,559.824,1247.969,1247.949v1247.969C9997.46-2164.882,9437.655-1605.044,8749.491-1605.044z"/>
</g>
<g>
</g>
<g>
</g>
<g>
</g>
<g>
</g>
<g>
</g>
<g>
</g>
</svg>
